<svg width="500" height="500" xmlns="http://www.w3.org/2000/svg">
<path class="Nim" d="M 250 250 L 344 74 A 200 200 0 0 0 250 50 L 250 250" fill="#FFC200" stroke="#FFC200" />
<path class="Python" d="M 250 250 L 69 335 A 200 200 0 1 0 344 74 L 250 250" fill="#3572A5" stroke="#3572A5" />
<path class="HTML" d="M 250 250 L 54 216 A 200 200 0 0 0 69 335 L 250 250" fill="#E34C26" stroke="#E34C26" />
<path class="CSS" d="M 250 250 L 66 172 A 200 200 0 0 0 54 216 L 250 250" fill="#563D7C" stroke="#563D7C" />
<path class="Shell" d="M 250 250 L 66 172 A 200 200 0 0 0 66 172 L 250 250" fill="#89E051" stroke="#89E051" />
<path class="JavaScript" d="M 250 250 L 83 142 A 200 200 0 0 0 66 172 L 250 250" fill="#F1E05A" stroke="#F1E05A" />
<path class="TypeScript" d="M 250 250 L 237 51 A 200 200 0 0 0 83 142 L 250 250" fill="#3178C6" stroke="#3178C6" />
<path class="Less" d="M 250 250 L 250 50 A 200 200 0 0 0 237 51 L 250 250" fill="#1D365D" stroke="#1D365D" />
</svg>