<svg width="400" height="400" xmlns="http://www.w3.org/2000/svg">
<path class="Python" d="M 200 200 L 64 347 A 200 200 0 1 0 200 0 L 200 200" fill="#FFD343" stroke="#FFD343"><title>Python</title></path>
<path class="HTML" d="M 200 200 L 1 218 A 200 200 0 0 0 64 347 L 200 200" fill="#E34C26" stroke="#E34C26"><title>HTML</title></path>
<path class="TypeScript" d="M 200 200 L 21 113 A 200 200 0 0 0 1 218 L 200 200" fill="#3178C6" stroke="#3178C6"><title>TypeScript</title></path>
<path class="Nim" d="M 200 200 L 86 37 A 200 200 0 0 0 21 113 L 200 200" fill="#FFC200" stroke="#FFC200"><title>Nim</title></path>
<path class="CSS" d="M 200 200 L 129 14 A 200 200 0 0 0 86 37 L 200 200" fill="#563D7C" stroke="#563D7C"><title>CSS</title></path>
<path class="JavaScript" d="M 200 200 L 166 4 A 200 200 0 0 0 129 14 L 200 200" fill="#F1E05A" stroke="#F1E05A"><title>JavaScript</title></path>
<path class="Less" d="M 200 200 L 187 1 A 200 200 0 0 0 166 4 L 200 200" fill="#1D365D" stroke="#1D365D"><title>Less</title></path>
<path class="Rust" d="M 200 200 L 197 1 A 200 200 0 0 0 187 1 L 200 200" fill="#DEA584" stroke="#DEA584"><title>Rust</title></path>
<path class="Shell" d="M 200 200 L 197 1 A 200 200 0 0 0 197 1 L 200 200" fill="#89E051" stroke="#89E051"><title>Shell</title></path>
</svg>