<svg width="400" height="400" xmlns="http://www.w3.org/2000/svg">
<path class="Python" d="M 200 200 L 104 375 A 200 200 0 1 0 200 0 L 200 200" fill="#FFD343" stroke="#FFD343"><title>Python</title></path>
<path class="TypeScript" d="M 200 200 L 2 228 A 200 200 0 0 0 104 375 L 200 200" fill="#3178C6" stroke="#3178C6"><title>TypeScript</title></path>
<path class="HTML" d="M 200 200 L 21 113 A 200 200 0 0 0 2 228 L 200 200" fill="#E34C26" stroke="#E34C26"><title>HTML</title></path>
<path class="Nim" d="M 200 200 L 77 43 A 200 200 0 0 0 21 113 L 200 200" fill="#FFC200" stroke="#FFC200"><title>Nim</title></path>
<path class="CSS" d="M 200 200 L 116 19 A 200 200 0 0 0 77 43 L 200 200" fill="#563D7C" stroke="#563D7C"><title>CSS</title></path>
<path class="JavaScript" d="M 200 200 L 152 6 A 200 200 0 0 0 116 19 L 200 200" fill="#F1E05A" stroke="#F1E05A"><title>JavaScript</title></path>
<path class="C++" d="M 200 200 L 169 3 A 200 200 0 0 0 152 6 L 200 200" fill="#f34b7d" stroke="#f34b7d"><title>C++</title></path>
<path class="Svelte" d="M 200 200 L 183 1 A 200 200 0 0 0 169 3 L 200 200" fill="#FF3E00" stroke="#FF3E00"><title>Svelte</title></path>
<path class="Less" d="M 200 200 L 194 1 A 200 200 0 0 0 183 1 L 200 200" fill="#1D365D" stroke="#1D365D"><title>Less</title></path>
<path class="Makefile" d="M 200 200 L 197 1 A 200 200 0 0 0 194 1 L 200 200" fill="#427819" stroke="#427819"><title>Makefile</title></path>
<path class="Shell" d="M 200 200 L 197 1 A 200 200 0 0 0 197 1 L 200 200" fill="#89E051" stroke="#89E051"><title>Shell</title></path>
</svg>