<svg width="400" height="400" xmlns="http://www.w3.org/2000/svg">
<path class="Nim" d="M 200 200 L 294 24 A 200 200 0 0 0 200 0 L 200 200" fill="#FFC200" stroke="#FFC200"><title>Nim</title></path>
<path class="Python" d="M 200 200 L 18 282 A 200 200 0 1 0 294 24 L 200 200" fill="#3572A5" stroke="#3572A5"><title>Python</title></path>
<path class="HTML" d="M 200 200 L 4 162 A 200 200 0 0 0 18 282 L 200 200" fill="#E34C26" stroke="#E34C26"><title>HTML</title></path>
<path class="CSS" d="M 200 200 L 18 119 A 200 200 0 0 0 4 162 L 200 200" fill="#563D7C" stroke="#563D7C"><title>CSS</title></path>
<path class="Shell" d="M 200 200 L 18 119 A 200 200 0 0 0 18 119 L 200 200" fill="#89E051" stroke="#89E051"><title>Shell</title></path>
<path class="JavaScript" d="M 200 200 L 35 89 A 200 200 0 0 0 18 119 L 200 200" fill="#F1E05A" stroke="#F1E05A"><title>JavaScript</title></path>
<path class="TypeScript" d="M 200 200 L 190 1 A 200 200 0 0 0 35 89 L 200 200" fill="#3178C6" stroke="#3178C6"><title>TypeScript</title></path>
<path class="Less" d="M 200 200 L 204 1 A 200 200 0 0 0 190 1 L 200 200" fill="#1D365D" stroke="#1D365D"><title>Less</title></path>
</svg>