<svg width="400" height="400" xmlns="http://www.w3.org/2000/svg">
<path class="Python" d="M 200 200 L 128 386 A 200 200 0 1 0 200 0 L 200 200" fill="#3572A5" stroke="#3572A5"><title>Python</title></path>
<path class="Nim" d="M 200 200 L 20 287 A 200 200 0 0 0 128 386 L 200 200" fill="#FFC200" stroke="#FFC200"><title>Nim</title></path>
<path class="HTML" d="M 200 200 L 5 151 A 200 200 0 0 0 20 287 L 200 200" fill="#E34C26" stroke="#E34C26"><title>HTML</title></path>
<path class="TypeScript" d="M 200 200 L 53 63 A 200 200 0 0 0 5 151 L 200 200" fill="#3178C6" stroke="#3178C6"><title>TypeScript</title></path>
<path class="CSS" d="M 200 200 L 88 34 A 200 200 0 0 0 53 63 L 200 200" fill="#563D7C" stroke="#563D7C"><title>CSS</title></path>
<path class="JavaScript" d="M 200 200 L 118 17 A 200 200 0 0 0 88 34 L 200 200" fill="#F1E05A" stroke="#F1E05A"><title>JavaScript</title></path>
<path class="Rust" d="M 200 200 L 148 6 A 200 200 0 0 0 118 17 L 200 200" fill="#DEA584" stroke="#DEA584"><title>Rust</title></path>
<path class="C++" d="M 200 200 L 172 1 A 200 200 0 0 0 148 6 L 200 200" fill="#f34b7d" stroke="#f34b7d"><title>C++</title></path>
<path class="Less" d="M 200 200 L 193 0 A 200 200 0 0 0 172 1 L 200 200" fill="#1D365D" stroke="#1D365D"><title>Less</title></path>
<path class="QMake" d="M 200 200 L 196 0 A 200 200 0 0 0 193 0 L 200 200" fill="#CCC" stroke="#CCC"><title>QMake</title></path>
<path class="Shell" d="M 200 200 L 196 0 A 200 200 0 0 0 196 0 L 200 200" fill="#89E051" stroke="#89E051"><title>Shell</title></path>
</svg>